# xmcd
#
# Track frame offsets: 
#        150
#        8002
#        28440
#        44337
#        66278
#        83634
#        108936
#        124895
#        137716
#        152920
#        171068
#        190393
#        206726
#        222839
#        227414
#        235174
#        257802
#        302926
#
# Disc length: 4281 seconds
#
# Revision: 0
# Processed by: cddbd v1.5.2PL0 Copyright (c) Steve Scherf et al.
# Submitted via: ExactAudioCopy v0.99pb4
#
DISCID=fd10b712
DTITLE=Vintage Imperial - Synergy
DYEAR=2004
DGENRE=Hip-Hop
TTITLE0=Three Fold Illusion Intro
TTITLE1=Combining Perfect Rhymes Part 2 C.P.R.2
TTITLE2=The End
TTITLE3=Verbatim Featuring Bloodfang
TTITLE4=Out To Get Ya
TTITLE5=Mic Club Featuring Jax and Flux of Binkis Records
TTITLE6=Back To The Future
TTITLE7=Out Of Work
TTITLE8=Got To Be
TTITLE9=Boiling Point
TTITLE10=Life Style Is Vintage Featuring RisingSons
TTITLE11=You Don't Want No More (Remix)
TTITLE12=Amazing
TTITLE13=The Only Interlude
TTITLE14=Outro
TTITLE15=Is Down With Us
TTITLE16=Mic Club (Remix) Featuring Jax and Flux of Binkis Record
TTITLE17=We Can Do This Featuring Mel Ink
EXTD=
EXTT0=
EXTT1=
EXTT2=
EXTT3=
EXTT4=
EXTT5=
EXTT6=
EXTT7=
EXTT8=
EXTT9=
EXTT10=
EXTT11=
EXTT12=
EXTT13=
EXTT14=
EXTT15=
EXTT16=
EXTT17=
PLAYORDER=
